<svg width="185" height="91" viewBox="0 0 185 91" fill="none" xmlns="http://www.w3.org/2000/svg">
<g filter="url(#filter0_d_20_6)">
<path d="M125.978 6.62022C126.728 5.90296 127.745 5.5 128.805 5.5H155.4C158.954 5.5 160.741 9.60439 158.237 12.0171L98.9657 69.1311C98.2152 69.8543 97.194 70.261 96.1287 70.261H69.1084C65.5473 70.261 63.7637 66.143 66.2815 63.7342L125.978 6.62022Z" fill="#00BC7D"/>
<path d="M128.805 70.5C125.244 70.5 123.46 66.3815 125.979 63.9728L158.176 33.1761C160.694 30.7674 165 32.4733 165 35.8797V66.6765C165 68.7881 163.21 70.5 161.003 70.5H128.805Z" fill="#00BC7D"/>
<path d="M65.8754 6.62022C66.6251 5.90296 67.642 5.5 68.7024 5.5H95.2966C98.8508 5.5 100.638 9.60439 98.1337 12.0171L38.8627 69.1311C38.1123 69.8543 37.091 70.261 36.0257 70.261H9.00545C5.44436 70.261 3.66072 66.143 6.17848 63.7342L65.8754 6.62022Z" fill="#00BC7D"/>
</g>
<defs>
<filter id="filter0_d_20_6" x="0" y="0.5" width="185" height="90" filterUnits="userSpaceOnUse" color-interpolation-filters="sRGB">
<feFlood flood-opacity="0" result="BackgroundImageFix"/>
<feColorMatrix in="SourceAlpha" type="matrix" values="0 0 0 0 0 0 0 0 0 0 0 0 0 0 0 0 0 0 127 0" result="hardAlpha"/>
<feOffset dx="7.5" dy="7.5"/>
<feGaussianBlur stdDeviation="6.25"/>
<feComposite in2="hardAlpha" operator="out"/>
<feColorMatrix type="matrix" values="0 0 0 0 0 0 0 0 0 0 0 0 0 0 0 0 0 0 0.25 0"/>
<feBlend mode="normal" in2="BackgroundImageFix" result="effect1_dropShadow_20_6"/>
<feBlend mode="normal" in="SourceGraphic" in2="effect1_dropShadow_20_6" result="shape"/>
</filter>
</defs>
</svg>
