<svg width="148" height="23" viewBox="0 0 148 23" fill="none" xmlns="http://www.w3.org/2000/svg">
<path d="M34.0252 1.29298C34.236 1.10539 34.522 1 34.8203 1H42.2999C43.2995 1 43.802 2.07346 43.0978 2.70448L26.4279 17.642C26.2168 17.8311 25.9296 17.9375 25.6299 17.9375H18.0305C17.0289 17.9375 16.5273 16.8605 17.2354 16.2305L34.0252 1.29298Z" fill="#00BC7D"/>
<path d="M34.8202 18C33.8186 18 33.3169 16.9229 34.0252 16.2929L43.0807 8.23836C43.789 7.60839 45 8.05456 45 8.94546V17C45 17.5523 44.4966 18 43.8757 18H34.8202Z" fill="#00BC7D"/>
<path d="M17.1212 1.29298C17.3321 1.10539 17.6181 1 17.9163 1H25.3959C26.3955 1 26.8981 2.07346 26.1939 2.70448L9.5239 17.642C9.31282 17.8311 9.02559 17.9375 8.72597 17.9375H1.12653C0.124976 17.9375 -0.376672 16.8605 0.331449 16.2305L17.1212 1.29298Z" fill="#00BC7D"/>
<path d="M54.517 0.545454H59.0682L63.875 12.2727H64.0795L68.8864 0.545454H73.4375V18H69.858V6.6392H69.7131L65.196 17.9148H62.7585L58.2415 6.59659H58.0966V18H54.517V0.545454ZM82.3246 18.2557C81.0007 18.2557 79.8558 17.9744 78.8899 17.4119C77.9297 16.8437 77.1882 16.054 76.6655 15.0426C76.1428 14.0256 75.8814 12.8466 75.8814 11.5057C75.8814 10.1534 76.1428 8.97159 76.6655 7.96023C77.1882 6.94318 77.9297 6.15341 78.8899 5.59091C79.8558 5.02273 81.0007 4.73864 82.3246 4.73864C83.6484 4.73864 84.7905 5.02273 85.7507 5.59091C86.7166 6.15341 87.4609 6.94318 87.9837 7.96023C88.5064 8.97159 88.7678 10.1534 88.7678 11.5057C88.7678 12.8466 88.5064 14.0256 87.9837 15.0426C87.4609 16.054 86.7166 16.8437 85.7507 17.4119C84.7905 17.9744 83.6484 18.2557 82.3246 18.2557ZM82.3416 15.4432C82.9439 15.4432 83.4467 15.2727 83.8501 14.9318C84.2536 14.5852 84.5575 14.1136 84.7621 13.517C84.9723 12.9205 85.0774 12.2415 85.0774 11.4801C85.0774 10.7188 84.9723 10.0398 84.7621 9.44318C84.5575 8.84659 84.2536 8.375 83.8501 8.02841C83.4467 7.68182 82.9439 7.50852 82.3416 7.50852C81.7337 7.50852 81.2223 7.68182 80.8075 8.02841C80.3984 8.375 80.0888 8.84659 79.8786 9.44318C79.674 10.0398 79.5717 10.7188 79.5717 11.4801C79.5717 12.2415 79.674 12.9205 79.8786 13.517C80.0888 14.1136 80.3984 14.5852 80.8075 14.9318C81.2223 15.2727 81.7337 15.4432 82.3416 15.4432ZM102.911 4.90909L98.3345 18H94.2436L89.6669 4.90909H93.5021L96.2209 14.2756H96.3572L99.0675 4.90909H102.911ZM110.313 18.2557C108.967 18.2557 107.808 17.983 106.836 17.4375C105.87 16.8864 105.126 16.108 104.603 15.1023C104.08 14.0909 103.819 12.8949 103.819 11.5142C103.819 10.1676 104.08 8.9858 104.603 7.96875C105.126 6.9517 105.862 6.15909 106.81 5.59091C107.765 5.02273 108.884 4.73864 110.168 4.73864C111.032 4.73864 111.836 4.87784 112.58 5.15625C113.33 5.42898 113.984 5.84091 114.54 6.39205C115.103 6.94318 115.54 7.63636 115.853 8.47159C116.165 9.30114 116.322 10.2727 116.322 11.3864V12.3835H105.268V10.1335H112.904C112.904 9.6108 112.79 9.14773 112.563 8.74432C112.336 8.34091 112.021 8.02557 111.617 7.7983C111.219 7.56534 110.756 7.44886 110.228 7.44886C109.677 7.44886 109.188 7.5767 108.762 7.83239C108.342 8.08239 108.012 8.42045 107.773 8.84659C107.535 9.26705 107.413 9.7358 107.407 10.2528V12.392C107.407 13.0398 107.526 13.5994 107.765 14.071C108.009 14.5426 108.353 14.9062 108.796 15.1619C109.239 15.4176 109.765 15.5455 110.373 15.5455C110.776 15.5455 111.146 15.4886 111.481 15.375C111.816 15.2614 112.103 15.0909 112.342 14.8636C112.58 14.6364 112.762 14.358 112.887 14.0284L116.245 14.25C116.075 15.0568 115.725 15.7614 115.197 16.3636C114.674 16.9602 113.998 17.4261 113.168 17.7614C112.344 18.0909 111.393 18.2557 110.313 18.2557ZM127.086 12.4261V4.90909H130.717V18H127.231V15.6222H127.094C126.799 16.3892 126.308 17.0057 125.62 17.4716C124.938 17.9375 124.106 18.1705 123.123 18.1705C122.248 18.1705 121.478 17.9716 120.813 17.5739C120.148 17.1761 119.629 16.6108 119.254 15.8778C118.884 15.1449 118.697 14.267 118.691 13.2443V4.90909H122.322V12.5966C122.327 13.3693 122.535 13.9801 122.944 14.429C123.353 14.8778 123.901 15.1023 124.589 15.1023C125.026 15.1023 125.435 15.0028 125.816 14.804C126.197 14.5994 126.504 14.2983 126.737 13.9006C126.975 13.5028 127.092 13.0114 127.086 12.4261ZM133.621 22.9091V4.90909H137.2V7.10795H137.362C137.521 6.75568 137.751 6.39773 138.053 6.03409C138.359 5.66477 138.757 5.35795 139.246 5.11364C139.74 4.86364 140.354 4.73864 141.087 4.73864C142.041 4.73864 142.922 4.98864 143.729 5.48864C144.536 5.98295 145.18 6.73011 145.663 7.73011C146.146 8.72443 146.388 9.97159 146.388 11.4716C146.388 12.9318 146.152 14.1648 145.68 15.1705C145.214 16.1705 144.578 16.929 143.771 17.446C142.97 17.9574 142.072 18.2131 141.078 18.2131C140.374 18.2131 139.774 18.0966 139.28 17.8636C138.791 17.6307 138.391 17.3381 138.078 16.9858C137.766 16.6278 137.527 16.267 137.362 15.9034H137.251V22.9091H133.621ZM137.175 11.4545C137.175 12.233 137.283 12.9119 137.499 13.4915C137.714 14.071 138.027 14.5227 138.436 14.8466C138.845 15.1648 139.342 15.3239 139.928 15.3239C140.518 15.3239 141.018 15.1619 141.428 14.8381C141.837 14.5085 142.146 14.054 142.357 13.4744C142.572 12.8892 142.68 12.2159 142.68 11.4545C142.68 10.6989 142.575 10.0341 142.365 9.46023C142.155 8.88636 141.845 8.4375 141.436 8.11364C141.027 7.78977 140.524 7.62784 139.928 7.62784C139.337 7.62784 138.837 7.78409 138.428 8.09659C138.024 8.40909 137.714 8.85227 137.499 9.42614C137.283 10 137.175 10.6761 137.175 11.4545Z" fill="white"/>
</svg>
